<?xml version="1.0" encoding="utf-8"?>
<!DOCTYPE svg PUBLIC "-//W3C//DTD SVG 1.1//EN" "http://www.w3.org/Graphics/SVG/1.1/DTD/svg11.dtd">
<svg version="1.1" id="Layer_1" xmlns="http://www.w3.org/2000/svg" xmlns:xlink="http://www.w3.org/1999/xlink" x="0px" y="0px"
	 width="313.62px" height="77.98px" viewBox="-162 202.02 313.62 77.98" enable-background="new -162 202.02 313.62 77.98"
	 xml:space="preserve">
<path fill="#F0F0F0" d="M151.01,239.78l-14.61-24.34c-0.81-1.34-2.75-2.45-4.32-2.45h-0.05H-44.73
	c-1.27,15.53-3.66,44.66-4.82,58.45h181.58h0.05c1.57,0,3.52-1.1,4.32-2.45l5.57-9.27l9.04-15.06
	C151.82,243.33,151.82,241.13,151.01,239.78z"/>
<path fill="#D5D3D3" d="M-44.73,213c-1.27,15.53-4.31,44.66-5.46,58.45h5.46V213z"/>
<path fill="#009448" d="M-83.08,242.82c-2.72-3.14-8.23-9.18-12.24-11.57c-9.58-5.7-20.22-5.36-29.87,0.17
	c-16.53,9.59-36.43,43.51-36.81,46.96c-0.06,0.53,0.43,0.96,0.96,0.96c0.08,0,10.18,0,10.27,0c0.31,0,0.57-0.15,0.74-0.38
	c0.13-0.16,20.23-31.69,29.44-37.18c5.76-4.8,13.87-5.58,20.32-5.51C-93.17,236.35-87.8,237.76-83.08,242.82z"/>
<path fill="#398BC3" d="M-44.64,211.93l-12.31,4.97c-1.2,16.05-4.61,61.63-4.63,61.91v0.01c0,0.39,0.23,0.72,0.57,0.87
	c0.12,0.05,0.25,0.09,0.39,0.09c0.04,0,9.41,0.22,9.45,0.22c0.53,0,0.96-0.43,0.96-0.96l0,0
	C-50.05,277.85-46.31,232.46-44.64,211.93z"/>
<path fill="#D83C30" d="M-44.87,202.03c-0.02,0-17.71,0.01-29.71,0l5.16,10.97h24.68l0.05-0.43c0,0,0.77-9.4,0.77-9.46
	C-43.92,202.42-44.21,202.03-44.87,202.03z"/>
<path fill="#3D7EAB" d="M-44.73,213h-12.62c0.37,0.14,0.63,0.49,0.63,0.9l-0.45,6.04L-44.73,213z"/>
<path fill="#4D4D4D" d="M-17.86,239.89H-6.1v14.7c-3.2,1.1-6.7,1.64-10.54,1.64c-4.2,0-7.44-1.22-9.74-3.65
	c-2.3-2.44-3.44-5.92-3.44-10.43c0-4.4,1.25-7.82,3.77-10.27c2.51-2.45,6.03-3.66,10.55-3.66c1.72,0,3.33,0.15,4.85,0.48
	c1.53,0.32,2.86,0.73,3.99,1.22L-9,235.7c-1.96-0.97-4.12-1.45-6.47-1.45c-2.14,0-3.81,0.71-4.98,2.1c-1.18,1.4-1.76,3.39-1.76,5.99
	c0,2.55,0.53,4.49,1.6,5.83c1.05,1.34,2.58,2,4.59,2c1.1,0,2.11-0.1,3.02-0.31v-4.27h-4.86L-17.86,239.89L-17.86,239.89z"/>
<g enable-background="new    ">
	<path fill="#4D4D4D" d="M72.83,228.31h8.11c3.76,0,6.48,0.55,8.16,1.65c1.68,1.1,2.51,2.83,2.51,5.2c0,1.6-0.41,2.92-1.23,3.98
		c-0.82,1.06-2.01,1.73-3.55,2v0.19c1.92,0.36,3.33,1.07,4.23,2.14s1.36,2.51,1.36,4.33c0,2.46-0.86,4.38-2.57,5.77
		s-4.1,2.08-7.15,2.08h-9.87V228.31z M77.3,239.6h4.3c1.87,0,3.23-0.3,4.09-0.89c0.86-0.59,1.29-1.6,1.29-3.02
		c0-1.28-0.46-2.21-1.39-2.79s-2.4-0.86-4.42-0.86H77.3V239.6z M77.3,243.22v8.66h4.75c1.87,0,3.28-0.36,4.23-1.08
		c0.95-0.72,1.43-1.85,1.43-3.39c0-1.42-0.49-2.47-1.46-3.16c-0.97-0.69-2.45-1.03-4.43-1.03H77.3z"/>
	<path fill="#4D4D4D" d="M117.67,255.64h-4.49v-12.32h-12.6v12.32h-4.47v-27.33h4.47v11.18h12.6v-11.18h4.49V255.64z"/>
</g>
<path fill="#4D4D4D" d="M13.41,241.91c0-2.51-0.49-4.35-1.48-5.56c-0.99-1.2-2.5-1.81-4.51-1.81H5.28v15.28h1.64
	c2.24,0,3.89-0.65,4.92-1.95C12.9,246.58,13.41,244.58,13.41,241.91 M21.05,241.65c0,4.54-1.24,8.05-3.76,10.51
	c-2.5,2.46-6.02,3.69-10.55,3.69h-8.82V228.6h9.43c4.37,0,7.75,1.12,10.13,3.36C19.87,234.19,21.05,237.42,21.05,241.65"/>
<path fill="#4D4D4D" d="M35.36,239.89h11.77v14.7c-3.2,1.1-6.71,1.64-10.54,1.64c-4.2,0-7.44-1.22-9.74-3.65
	c-2.29-2.44-3.44-5.92-3.44-10.43c0-4.4,1.25-7.82,3.76-10.27s6.03-3.66,10.55-3.66c1.71,0,3.33,0.15,4.86,0.48
	c1.51,0.32,2.84,0.73,3.97,1.22l-2.33,5.78c-1.96-0.97-4.12-1.45-6.47-1.45c-2.15,0-3.81,0.71-4.99,2.1
	c-1.17,1.4-1.75,3.39-1.75,5.99c0,2.55,0.53,4.49,1.59,5.83s2.59,2,4.59,2c1.1,0,2.11-0.1,3.02-0.31v-4.27h-4.87v-5.7H35.36z"/>
<path fill="#1A8746" d="M-66.83,270.52c-0.1-0.43-5.95-13.1-14.67-25.82c-8.54-11.31-26.22-13.63-39.07-2.92
	c6.11-3.64,12.06-4.53,18.42-1.33c4.56,2.3,8.27,5.66,11.58,9.48c5.33,6.15,9.47,13.06,12.86,20.43c0.46,1,0.98,1.37,2.08,1.33
	c2.45-0.09,4.91-0.09,7.37,0c0.17,0.01,0.33,0,0.47-0.01c0,0,0,0-0.01,0c0.09-0.01,0.17-0.02,0.24-0.03
	c0.02-0.01,0.05-0.01,0.07-0.01c0.05-0.01,0.09-0.03,0.14-0.04c0.31-0.15,0.52-0.45,0.54-0.81
	C-66.81,270.76-66.81,270.66-66.83,270.52z"/>
<path fill="#DCB23C" d="M-82.73,234.11c0,0,1.15,9.96,1.22,10.59l0,0c8.73,12.72,14.58,25.39,14.68,25.82l0,0
	C-67.19,266.77-82.73,234.11-82.73,234.11z"/>
<path fill="#FBCA36" d="M-73.78,202.03c0,0-11.44-0.01-11.47-0.01c-0.53,0-0.96,0.43-0.96,0.96c0,0.04,0.02,0.49,0.04,0.7
	c0.74,7.03,2.32,20.75,3.44,30.43c0,0,15.54,32.66,15.89,36.41C-67.19,266.77-73.78,202.03-73.78,202.03z"/>
<path fill="#BC3A2B" d="M-73.78,202.03l1.26,12.42c0,0,0-0.59,0.01-0.65c0.01-0.05,0.01-0.09,0.02-0.14
	c0.1-0.31,0.35-0.54,0.67-0.62c0.05-0.01,0.37-0.05,0.67-0.05c0.76,0,2.62,0.01,2.62,0.01L-73.78,202.03z"/>
</svg>
